<svg xmlns="http://www.w3.org/2000/svg" width="80" height="59" viewBox="0 0 80 59" fill="none">
  <path d="M61.9708 37.9477C62.0625 38.2229 62.0991 38.5135 62.0785 38.8028C62.0579 39.0922 61.9804 39.3746 61.8506 39.634C61.7208 39.8935 61.5412 40.1248 61.3219 40.3147C61.1027 40.5047 60.8482 40.6496 60.5729 40.7412L50.6354 44.0537C50.0796 44.2388 49.473 44.1955 48.9492 43.9333C48.4253 43.6712 48.027 43.2116 47.8419 42.6558C47.6568 42.1 47.7001 41.4934 47.9623 40.9695C48.2244 40.4457 48.6839 40.0474 49.2398 39.8623L59.1773 36.5498C59.4525 36.4581 59.7431 36.4215 60.0324 36.4421C60.3218 36.4627 60.6042 36.5402 60.8636 36.67C61.1231 36.7998 61.3544 36.9794 61.5443 37.1987C61.7343 37.4179 61.8792 37.6724 61.9708 37.9477Z" fill="#1570EF"/>
  <path fill-rule="evenodd" clip-rule="evenodd" d="M1.76051 25.2832L9.08335 27.7234V46.375C9.08336 46.8341 9.22651 47.2819 9.49288 47.6559C9.75926 48.03 10.1356 48.3117 10.5696 48.4618L39.2602 58.3927C39.7136 58.5556 40.2082 58.5641 40.6669 58.417L40.6978 58.4082L40.731 58.3971L69.4305 48.4618C69.8644 48.3117 70.2408 48.03 70.5071 47.6559C70.7735 47.2819 70.9167 46.8341 70.9167 46.375V27.7234L78.2395 25.2832C78.5773 25.1708 78.8829 24.9785 79.1304 24.7226C79.3778 24.4667 79.5597 24.1547 79.6605 23.8133C79.7614 23.4719 79.7782 23.1112 79.7096 22.7619C79.641 22.4126 79.4889 22.0851 79.2664 21.8072L70.4331 10.7656C70.1711 10.4394 69.8219 10.1943 69.4261 10.0589L40.7221 0.121405C40.2543 -0.0404682 39.7457 -0.0404682 39.2779 0.121405L10.574 10.0589C10.1781 10.1942 9.82884 10.4393 9.56697 10.7656L0.733638 21.8072C0.511122 22.0851 0.359074 22.4126 0.290448 22.7619C0.221823 23.1112 0.238655 23.4719 0.33951 23.8133C0.440364 24.1547 0.622252 24.4667 0.869676 24.7226C1.1171 24.9785 1.42273 25.1708 1.76051 25.2832ZM34.0795 34.3903L37.7917 29.0903V53.212L13.5 44.8026V29.1941L31.573 35.2184C32.0245 35.3685 32.5124 35.3688 32.964 35.2191C33.4156 35.0695 33.8069 34.7803 34.0795 34.3903ZM18.0426 12.1458L40 19.7469L61.9575 12.1458L40 4.5447L18.0426 12.1458ZM45.9206 34.3925L42.2083 29.0881V53.212L66.5 44.8026V29.1941L48.427 35.2184C47.9755 35.3685 47.4877 35.3688 47.036 35.2191C46.5844 35.0695 46.1931 34.778 45.9206 34.3881V34.3925ZM12.0425 14.7428L6.16172 22.0943L18.3318 26.151L31.4052 30.5081L36.5131 23.2139L36.2149 23.1102L12.0425 14.7406V14.7428ZM73.8383 22.0943L67.9575 14.7406L43.487 23.2139L48.5948 30.5081L73.8383 22.0943Z" fill="#1570EF"/>
</svg>