<svg xmlns="http://www.w3.org/2000/svg" width="80" height="88" viewBox="0 0 80 88" fill="none">
  <path d="M61.9706 67.0727C62.0623 67.3479 62.0989 67.6385 62.0782 67.9278C62.0576 68.2172 61.9802 68.4996 61.8504 68.759C61.7206 69.0185 61.5409 69.2498 61.3217 69.4397C61.1025 69.6297 60.8479 69.7746 60.5727 69.8662L50.6352 73.1787C50.0794 73.3638 49.4728 73.3205 48.9489 73.0583C48.425 72.7962 48.0267 72.3366 47.8416 71.7808C47.6566 71.225 47.6999 70.6184 47.962 70.0945C48.2242 69.5707 48.6837 69.1724 49.2395 68.9873L59.177 65.6748C59.4522 65.5831 59.7428 65.5465 60.0322 65.5671C60.3215 65.5877 60.604 65.6652 60.8634 65.795C61.1228 65.9248 61.3541 66.1044 61.5441 66.3237C61.7341 66.5429 61.879 66.7974 61.9706 67.0727Z" fill="#1570EF"/>
  <path fill-rule="evenodd" clip-rule="evenodd" d="M1.76051 54.4082L9.08335 56.8484V75.5C9.08336 75.9591 9.22651 76.4069 9.49288 76.7809C9.75926 77.155 10.1356 77.4367 10.5696 77.5868L39.2602 87.5177C39.7136 87.6806 40.2082 87.6891 40.6669 87.542L40.6978 87.5332L40.731 87.5221L69.4305 77.5868C69.8644 77.4367 70.2408 77.155 70.5071 76.7809C70.7735 76.4069 70.9167 75.9591 70.9167 75.5V56.8484L78.2395 54.4082C78.5773 54.2958 78.8829 54.1035 79.1304 53.8476C79.3778 53.5917 79.5597 53.2797 79.6605 52.9383C79.7614 52.5969 79.7782 52.2362 79.7096 51.8869C79.641 51.5376 79.4889 51.2101 79.2664 50.9322L70.4331 39.8906C70.1711 39.5644 69.8219 39.3193 69.4261 39.1839L40.7221 29.2464C40.2543 29.0845 39.7457 29.0845 39.2779 29.2464L10.574 39.1839C10.1781 39.3192 9.82884 39.5643 9.56697 39.8906L0.733638 50.9322C0.511122 51.2101 0.359074 51.5376 0.290448 51.8869C0.221823 52.2362 0.238655 52.5969 0.33951 52.9383C0.440364 53.2797 0.622252 53.5917 0.869676 53.8476C1.1171 54.1035 1.42273 54.2958 1.76051 54.4082ZM34.0795 63.5153L37.7917 58.2153V82.337L13.5 73.9276V58.3191L31.573 64.3434C32.0245 64.4935 32.5124 64.4938 32.964 64.3441C33.4156 64.1945 33.8069 63.9053 34.0795 63.5153ZM18.0426 41.2708L40 48.8719L61.9575 41.2708L40 33.6697L18.0426 41.2708ZM45.9206 63.5175L42.2083 58.2131V82.337L66.5 73.9276V58.3191L48.427 64.3434C47.9755 64.4935 47.4877 64.4938 47.036 64.3441C46.5844 64.1945 46.1931 63.903 45.9206 63.5131V63.5175ZM12.0425 43.8678L6.16172 51.2193L18.3318 55.276L31.4052 59.6331L36.5131 52.3389L36.2149 52.2352L12.0425 43.8656V43.8678ZM73.8383 51.2193L67.9575 43.8656L43.487 52.3389L48.5948 59.6331L73.8383 51.2193Z" fill="#1570EF"/>
  <path d="M41.399 19L36.9157 14.3333V13H39.249C39.8379 13 40.3464 12.8084 40.7744 12.4253C41.2024 12.0422 41.4606 11.5671 41.549 11H36.249V9.66667H41.349C41.1601 9.27778 40.8795 8.95844 40.507 8.70867C40.1346 8.45889 39.7152 8.33378 39.249 8.33333H36.249V7H44.249V8.33333H42.0824C42.2379 8.52222 42.3768 8.72778 42.499 8.95C42.6212 9.17222 42.7157 9.41111 42.7824 9.66667H44.249V11H42.899C42.8101 11.9444 42.4212 12.7362 41.7324 13.3753C41.0435 14.0144 40.2157 14.3338 39.249 14.3333H38.7657L43.249 19H41.399Z" fill="#1570EF"/>
  <circle cx="40.249" cy="13" r="12.5" stroke="#1570EF"/>
</svg>